# xmcd
#
# Track frame offsets: 
#        150
#        9398
#        20530
#        30811
#        42588
#        53405
#        63762
#        77369
#        88721
#        99273
#        110232
#        121589
#        134962
#        148081
#        162837
#        176374
#        190905
#        204483
#        216651
#        230435
#        250387
#        267889
#        285929
#        302294
#
# Disc length: 4228 seconds
#
# Revision: 0
# Processed by: cddbd v1.5.2PL0 Copyright (c) Steve Scherf et al.
# Submitted via: ExactAudioCopy v0.95b3
#
DISCID=3f108218
DTITLE=Hollies  - History of the Hollies  FLAC
DYEAR=1900
DGENRE=
TTITLE0=(Aint That) Just Like Me (M)
TTITLE1=Searchin (M)
TTITLE2=Stay (M)
TTITLE3=Just One Look (M)
TTITLE4=Here I Go Again (M)
TTITLE5=We're Through
TTITLE6=Yes I Will (M)
TTITLE7=I am Alive (M)
TTITLE8=Look Through Any Window (M)
TTITLE9=If I Needed Someone (M)
TTITLE10=I Cant Let Go (M)
TTITLE11=Bus Stop (M)
TTITLE12=Stop Stop Stop (M)
TTITLE13=On a Carousel
TTITLE14=Carrie Anne (M)
TTITLE15=King Midas In Reverse (M)
TTITLE16=Jennifer Eccles
TTITLE17=Listen To Me
TTITLE18=Sorry Suzanne
TTITLE19=He Aint Heavy, He is My Brother
TTITLE20=I Cant Tell The Bottom From The Top
TTITLE21=Gasoline Alley Bred
TTITLE22=Hey Willy
TTITLE23=Long Cool Woman (In a Black Dress)
EXTD=
EXTT0=
EXTT1=
EXTT2=
EXTT3=
EXTT4=
EXTT5=
EXTT6=
EXTT7=
EXTT8=
EXTT9=
EXTT10=
EXTT11=
EXTT12=
EXTT13=
EXTT14=
EXTT15=
EXTT16=
EXTT17=
EXTT18=
EXTT19=
EXTT20=
EXTT21=
EXTT22=
EXTT23=
PLAYORDER=
